<svg xmlns="http://www.w3.org/2000/svg" xmlns:xlink="http://www.w3.org/1999/xlink" version="1.1" x="0px" y="0px" width="136px" height="45px" viewBox="0 0 136 45" enable-background="new 0 0 136 45" xml:space="preserve"><style>.style0{fill:	#1B9ED4;}.style1{opacity:	0.7;}.style2{fill:	#FFFFFF;}</style><g><g><g><g><path d="M129.701 19.658c-2.118 10.141-7.738 21.674-9.413 24.867c4.471-5.312 13.46-15.883 15.089-21.729 C133.146 20.9 131.1 20.2 129.7 19.658L129.701 19.658z" class="style0"/><path d="M120.288 44.525c0.053-0.062 6.302-15.363 8.254-25.227c-5.51-2.16-16.108-2.345-17.172-2.303 C118.568 25 120.9 39.8 120.3 44.525H120.288z" class="style0"/></g><g><path d="M127.279 0.474c1.363 1.8 4.1 10.5 2.6 18.167c2.664 0.8 5 3 5.5 4.2 C135.744 17.4 130.2 3.2 127.3 0.474H127.279z" class="style0"/><path d="M111.37 16.998c5.034-0.888 13.162-0.225 17.4 1.181c1.418-11.188-0.699-15.915-1.477-17.704 C121.202 9.8 118.5 12.8 111.4 16.998H111.37z" class="style0"/></g></g></g><g class="style1"><g><path d="M4.408 15.471c-0.418 0-0.8-0.077-1.146-0.231c-0.346-0.154-0.636-0.392-0.87-0.712h-0.07 c0.047 0.4 0.1 0.7 0.1 1.066v2.643H1.42V8.932h0.791l0.135 0.879h0.047c0.25-0.352 0.541-0.605 0.873-0.762 c0.332-0.157 0.713-0.234 1.143-0.234c0.852 0 1.5 0.3 2 0.873s0.694 1.4 0.7 2.449c0 1.055-0.235 1.874-0.706 2.5 C5.932 15.3 5.2 15.5 4.4 15.471H4.408z M4.268 9.641c-0.656 0-1.131 0.182-1.424 0.545C2.551 10.5 2.4 11.1 2.4 11.9 v0.217c0 0.9 0.1 1.5 0.5 1.937c0.4 0.4 0.8 0.6 1.4 0.583c0.555 0 0.989-0.225 1.304-0.674 c0.315-0.449 0.472-1.068 0.472-1.857c0-0.801-0.157-1.415-0.472-1.843C5.289 9.9 4.8 9.6 4.3 9.641H4.268z" class="style2"/><path d="M14.316 12.137c0 1.047-0.264 1.864-0.791 2.452s-1.256 0.882-2.186 0.9 c-0.574 0-1.084-0.135-1.529-0.404s-0.789-0.656-1.031-1.16c-0.242-0.504-0.363-1.094-0.363-1.77 c0-1.047 0.262-1.862 0.785-2.446s1.25-0.876 2.18-0.876c0.898 0 1.6 0.3 2.1 0.896s0.835 1.4 0.8 2.408H14.316z M9.424 12.1 c0 0.8 0.2 1.4 0.5 1.875c0.3 0.5 0.8 0.6 1.4 0.645c0.589 0 1.12-0.214 1.45-0.642s0.495-1.054 0.495-1.878 c0-0.816-0.165-1.437-0.495-1.86c-0.33-0.423-0.817-0.636-1.462-0.636c-0.637 0-1.117 0.209-1.441 0.6 C9.547 10.6 9.4 11.3 9.4 12.137L9.424 12.1z" class="style2"/><path d="M21.266 15.354l-1.178-3.768c-0.074-0.23-0.213-0.754-0.416-1.57h-0.047 c-0.156 0.684-0.293 1.211-0.41 1.582l-1.213 3.756h-1.125l-1.752-6.422h1.02c0.414 1.6 0.7 2.8 0.9 3.7 c0.2 0.9 0.3 1.4 0.4 1.705h0.047c0.043-0.223 0.112-0.511 0.208-0.864c0.096-0.353 0.179-0.634 0.249-0.841l1.178-3.686h1.055 l1.148 3.7c0.219 0.7 0.4 1.2 0.4 1.693h0.047c0.016-0.141 0.058-0.357 0.126-0.65c0.068-0.293 0.476-1.869 1.222-4.729h1.008 l-1.775 6.4h-1.092V15.354z" class="style2"/><path d="M28.068 15.471c-0.949 0-1.698-0.289-2.247-0.867c-0.549-0.578-0.823-1.381-0.823-2.408 c0-1.035 0.255-1.857 0.765-2.467c0.51-0.61 1.194-0.914 2.054-0.914c0.805 0 1.4 0.3 1.9 0.794c0.5 0.5 0.7 1.2 0.7 2.1 v0.615h-4.424c0.02 0.8 0.2 1.3 0.6 1.717c0.4 0.4 0.9 0.6 1.5 0.586c0.691 0 1.375-0.145 2.051-0.434v0.867 c-0.344 0.148-0.669 0.255-0.976 0.319S28.502 15.5 28.1 15.471H28.068z M27.805 9.629c-0.516 0-0.927 0.168-1.233 0.5 c-0.306 0.332-0.487 0.801-0.542 1.395h3.357c0-0.613-0.137-1.083-0.41-1.409C28.704 9.8 28.3 9.6 27.8 9.629H27.805z" class="style2"/><path d="M35.018 8.814c0.285 0 0.5 0 0.8 0.07L35.65 9.787c-0.266-0.059-0.5-0.088-0.703-0.088 c-0.52 0-0.964 0.211-1.333 0.633c-0.369 0.422-0.554 0.947-0.554 1.576v3.445h-0.973V8.932h0.803l0.111 1.189h0.047 c0.238-0.418 0.525-0.74 0.861-0.967S34.615 8.8 35 8.814H35.018z" class="style2"/><path d="M39.699 15.471c-0.949 0-1.698-0.289-2.247-0.867c-0.549-0.578-0.823-1.381-0.823-2.408 c0-1.035 0.255-1.857 0.765-2.467c0.51-0.61 1.194-0.914 2.054-0.914c0.805 0 1.4 0.3 1.9 0.794c0.5 0.5 0.7 1.2 0.7 2.1 v0.615h-4.424c0.02 0.8 0.2 1.3 0.6 1.717s0.87 0.6 1.5 0.586c0.691 0 1.375-0.145 2.051-0.434v0.867 c-0.344 0.148-0.669 0.255-0.976 0.319C40.492 15.4 40.1 15.5 39.7 15.471L39.699 15.471z M39.436 9.6 c-0.516 0-0.927 0.168-1.233 0.5c-0.306 0.332-0.487 0.801-0.542 1.395h3.357c0-0.613-0.137-1.083-0.41-1.409 C40.335 9.8 39.9 9.6 39.4 9.629H39.436z" class="style2"/><path d="M48.09 14.492h-0.053c-0.449 0.652-1.121 0.979-2.016 0.979c-0.84 0-1.493-0.287-1.96-0.861 c-0.467-0.574-0.7-1.391-0.7-2.449c0-1.058 0.234-1.881 0.703-2.467c0.469-0.586 1.121-0.879 1.957-0.879 c0.871 0 1.5 0.3 2 0.949h0.076l-0.041-0.463L48.037 8.85V6.236h0.973v9.117h-0.791L48.09 14.492z M46.145 14.7 c0.664 0 1.146-0.181 1.444-0.542c0.298-0.361 0.448-0.944 0.448-1.749V12.16c0-0.91-0.151-1.56-0.454-1.948 c-0.303-0.388-0.786-0.583-1.45-0.583c-0.57 0-1.007 0.222-1.31 0.665c-0.303 0.443-0.454 1.069-0.454 1.9 c0 0.8 0.1 1.4 0.5 1.857s0.693 0.6 1.2 0.605H46.145z" class="style2"/><path d="M57.178 8.826c0.844 0 1.5 0.3 2 0.864s0.7 1.4 0.7 2.446c0 1.046-0.235 1.874-0.706 2.5 c-0.471 0.626-1.124 0.876-1.96 0.876c-0.418 0-0.8-0.077-1.146-0.231c-0.346-0.154-0.636-0.392-0.87-0.712h-0.07l-0.205 0.8 h-0.697V6.236h0.973v2.215c0 0.496-0.016 0.941-0.047 1.336h0.047C55.615 9.1 56.3 8.8 57.2 8.826H57.178z M57.037 9.6 c-0.664 0-1.143 0.19-1.436 0.6c-0.293 0.41-0.439 1.022-0.439 1.925s0.15 1.5 0.5 1.937s0.783 0.6 1.4 0.6 c0.598 0 1.043-0.218 1.336-0.653c0.293-0.435 0.439-1.062 0.439-1.878c0-0.836-0.146-1.459-0.439-1.869 C58.105 9.9 57.6 9.6 57 9.641H57.037z" class="style2"/><path d="M60.523 8.932h1.043l1.406 3.662c0.309 0.8 0.5 1.4 0.6 1.812h0.047c0.051-0.199 0.157-0.54 0.319-1.022 c0.162-0.482 0.692-1.966 1.591-4.45h1.043l-2.76 7.312c-0.273 0.723-0.593 1.235-0.958 1.5 c-0.365 0.265-0.813 0.454-1.345 0.454c-0.297 0-0.59-0.033-0.879-0.1v-0.78c0.215 0 0.5 0.1 0.7 0.1 c0.668 0 1.145-0.375 1.43-1.125l0.357-0.914L60.523 8.932z" class="style2"/></g></g><g><g><g><g><path d="M3.907 30.322c-0.168-0.541-0.506-0.676-1.046-0.676H2.388v-2.804h2.061c1.52 0 2.1 0.4 2.5 1.8 l3.037 10.161c0.271 0.9 0.4 1.8 0.4 1.821h0.068c0 0 0.202-0.943 0.472-1.821l3.679-11.916h3.006l3.714 11.9 c0.271 0.9 0.4 1.8 0.4 1.821h0.067c0 0 0.136-0.943 0.405-1.821l3.004-10.161c0.439-1.451 1.048-1.823 2.566-1.823h2.025 v2.804h-0.473c-0.541 0-0.878 0.135-1.047 0.676L23.86 43.926h-3.682l-3.545-10.972c-0.27-0.878-0.472-1.856-0.472-1.856 h-0.067c0 0-0.203 0.979-0.473 1.856L12.11 43.926H8.397L3.907 30.322z" class="style0"/><path d="M38.309 26.439c4.794 0 7.4 3.6 7.4 8c0 0.438-0.101 1.352-0.101 1.352h-12.5 c0.204 3.6 2.8 5.7 5.9 5.705c2.938 0 4.996-1.991 4.996-1.991l1.418 2.328c0 0-2.531 2.499-6.582 2.5 c-5.402 0-9.082-3.881-9.082-8.946C29.733 29.9 33.4 26.4 38.3 26.439H38.309z M42.292 33.4 c-0.102-2.838-1.891-4.354-4.017-4.354c-2.499 0-4.524 1.517-5.031 4.354H42.292z" class="style0"/><path d="M48.198 23.636c0-0.506-0.269-0.741-0.742-0.741h-1.385v-2.803h3.242c1.52 0 2.2 0.6 2.2 2.2v5.569 c0 0.811-0.066 1.419-0.066 1.419h0.066c0 0 1.486-2.804 5.502-2.804c4.592 0 7.5 3.6 7.5 8.9 c0 5.437-3.275 8.946-7.766 8.946c-3.814 0-5.367-2.869-5.367-2.869h-0.067c0 0 0.1 0.5 0.1 1.281v1.183h-3.141V23.636H48.198z M56.234 41.529c2.7 0 4.929-2.229 4.929-6.109c0-3.713-1.992-6.111-4.861-6.111c-2.531 0-4.895 1.789-4.895 6.1 c0 3.1 1.6 6.1 4.8 6.119H56.234L56.234 41.529z" class="style0"/></g></g><g><g><path d="M66.97 22.927c0-0.471-0.271-0.742-0.742-0.742H64.81v-1.991h2.396c1.451 0 2.1 0.5 2.1 2v11.275 h1.756c0.644 0 1.451-0.203 1.924-0.812l4.354-5.671h2.804l-4.896 6.213c-0.847 1.046-1.283 1.214-1.283 1.214v0.067 c0 0 0.5 0.2 1 1.248l3.07 5.504c0.305 0.6 0.6 0.7 1.6 0.744h0.909v1.989H78.92c-1.688 0-2.161-0.271-2.938-1.688 l-3.377-6.076c-0.371-0.676-1.183-0.742-1.789-0.742h-1.553v8.507H66.97V22.927z" class="style0"/><path d="M83.814 29.68c0-0.473-0.271-0.744-0.744-0.744h-1.416v-1.99h2.396c1.451 0 2.1 0.6 2.1 2.1 v12.188c0 0.5 0.3 0.7 0.7 0.744h1.416v1.989h-2.396c-1.451 0-2.061-0.606-2.061-2.059V29.68H83.814z M83.747 20.2 h2.228v2.904h-2.228V20.194z" class="style0"/><path d="M91.174 28.87h-2.229v-1.925h2.263v-4.691h2.263v4.691h4.254v1.925h-4.254v8.642 c0 4 2.5 4.5 3.8 4.491c0.475 0 0.776-0.067 0.776-0.067v2.061c0 0-0.405 0.066-0.978 0.1c-1.961 0-5.909-0.64-5.909-6.312 V28.87H91.174z" class="style0"/><path d="M107.378 26.541c4.692 0 7.1 3.6 7.1 7.831c0 0.405-0.065 1.147-0.065 1.147h-13.031 c0.066 4.3 3.1 6.8 6.6 6.754c3.105 0 5.099-2.094 5.099-2.094l1.114 1.721c0 0-2.465 2.432-6.312 2.4 c-5.029 0-8.879-3.646-8.879-8.879c0.004-5.521 3.798-8.922 8.398-8.881L107.378 26.541L107.378 26.541z M112.141 33.7 c-0.137-3.513-2.297-5.234-4.795-5.234c-2.804 0-5.269 1.823-5.842 5.234H112.141z" class="style0"/></g></g></g></g><g><path d="M131.324 37.367c1.824 0 3.3 1.5 3.3 3.342c0 1.855-1.461 3.354-3.286 3.4c-1.8 0-3.261-1.498-3.261-3.354 c-0.015-1.854 1.423-3.354 3.223-3.389L131.324 37.367L131.324 37.367z M131.325 42.871c1.163 0 2.055-0.951 2.055-2.161 c0-1.2-0.892-2.151-2.055-2.151c-1.14 0-2.023 0.951-2.023 2.151c0 1.2 0.9 2.2 2 2.161H131.325z M130.382 39.8h-0.241 v-0.469h1.389c0.546 0 0.9 0.3 0.9 0.877c0 0.431-0.296 0.664-0.492 0.717v0.017c0 0 0.1 0 0.2 0.102l0.24 0.5 c0.053 0.1 0.1 0.1 0.2 0.091h0.083v0.46H132.3c-0.204 0-0.303-0.036-0.394-0.203l-0.37-0.693 c-0.06-0.112-0.144-0.121-0.248-0.121h-0.212v1.02h-0.643v-2.266L130.382 39.8z M131.378 40.604c0.25 0 0.399-0.158 0.399-0.414 c0-0.266-0.149-0.407-0.394-0.407h-0.36v0.821H131.378z" class="style0"/></g></g></svg>